<svg width="24" height="32" viewBox="0 0 24 32" fill="none">
<path d="M22.8093 18.5692C23.2877 17.8804 23.5418 17.0602 23.5365 16.221C23.5135 14.8126 22.7084 13.4443 21.1391 12.1531C21.3063 11.5918 21.3344 10.9981 21.221 10.4234C20.7295 7.99213 18.1063 7.05923 16.0615 6.57877C16.1974 5.94433 16.1372 5.28344 15.8888 4.68418C15.6403 4.08492 15.2155 3.57577 14.671 3.22457C15.5091 1.67008 16.549 1.49692 16.9685 1.49692C17.5499 1.49692 17.9025 1.61903 18.0963 1.72213C18.2227 1.78975 18.3658 1.81973 18.5086 1.80856C18.6514 1.79739 18.7881 1.74552 18.9025 1.65907C19.0026 1.5832 19.082 1.48328 19.1334 1.36854C19.1848 1.25379 19.2065 1.12792 19.1966 1.00254C19.1866 0.877166 19.1453 0.756321 19.0764 0.651164C19.0076 0.546007 18.9134 0.459927 18.8026 0.400871C18.3031 0.133615 17.6848 0.000488281 16.9715 0.000488281C15.9266 0.000488281 14.9507 0.477944 14.1495 1.38081C13.7928 1.79004 13.4906 2.24393 13.2505 2.7311C12.6932 2.68023 12.1322 2.77688 11.6239 3.01139C11.1155 3.24589 10.6775 3.61002 10.3536 4.06737C10.2419 3.92081 10.1448 3.76356 10.0639 3.59793C10.0198 3.50522 9.95721 3.42257 9.87997 3.35508C9.80272 3.28759 9.71248 3.23669 9.61483 3.20554C9.51717 3.17439 9.41417 3.16365 9.31221 3.17398C9.21024 3.18432 9.11147 3.2155 9.02202 3.26561C7.45869 4.14445 6.31591 5.31857 5.62564 6.75394C5.19504 7.64858 4.95681 8.62389 4.92639 9.61668C3.53488 10.2173 2.72874 11.3633 2.60587 12.9198C2.57137 13.3733 2.59082 13.8293 2.66381 14.2781C1.6369 14.7005 0.930659 15.4493 0.665941 16.4032C0.477067 17.0863 0.516715 17.8127 0.778821 18.4711H0.747854C0.635585 18.471 0.524737 18.4963 0.423546 18.545C0.322356 18.5938 0.233425 18.6647 0.163362 18.7526C0.0932978 18.8405 0.0439027 18.9431 0.0188465 19.0528C-0.00620973 19.1624 -0.00628286 19.2763 0.0186325 19.386L2.53794 30.4966C2.62785 30.9039 2.8542 31.268 3.17934 31.5284C3.50447 31.7888 3.9088 31.9298 4.32503 31.928H18.8605C19.2764 31.9298 19.6804 31.789 20.0055 31.529C20.3306 31.269 20.5571 30.9054 20.6476 30.4986L23.1669 19.388C23.192 19.2785 23.192 19.1646 23.1669 19.0551C23.1418 18.9455 23.0923 18.8431 23.0221 18.7554C22.9633 18.6806 22.8912 18.6175 22.8093 18.5692ZM21.4997 19.9706L19.1882 30.1613C19.1717 30.236 19.1302 30.3027 19.0706 30.3505C19.011 30.3982 18.9368 30.424 18.8605 30.4236H16.497C16.497 30.4236 16.497 30.4166 16.497 30.4125L17.6808 19.9696L21.4997 19.9706ZM16.1774 19.9706L15.0116 30.2434C15.0058 30.3044 14.9941 30.3648 14.9767 30.4236H12.3405V19.9696L16.1774 19.9706ZM10.8441 19.9706V30.4266H8.20889C8.19157 30.3677 8.17953 30.3074 8.17292 30.2464L7.00817 19.9696L10.8441 19.9706ZM2.49699 18.4701C2.3013 18.2454 2.16276 17.9765 2.09318 17.6865C2.02361 17.3965 2.02506 17.0939 2.09741 16.8045C2.28321 16.1379 2.89656 15.6675 3.83556 15.4803C4.80452 15.2861 7.36479 14.7456 10.2217 13.9228C10.3187 13.8979 10.4096 13.8537 10.4893 13.7929C10.5689 13.7322 10.6355 13.656 10.6852 13.569C10.7349 13.4819 10.7667 13.3858 10.7786 13.2862C10.7906 13.1866 10.7825 13.0857 10.7548 12.9893C10.7272 12.8929 10.6805 12.8031 10.6175 12.7251C10.5546 12.6472 10.4767 12.5826 10.3884 12.5354C10.3002 12.4881 10.2033 12.4591 10.1037 12.45C10.004 12.4409 9.90351 12.4519 9.80818 12.4824C7.45569 13.1601 5.31298 13.6425 4.10727 13.8938C3.98739 12.9849 4.0793 11.6056 5.52575 10.984C6.18704 10.6997 7.56557 10.4485 9.02202 10.1832L9.51449 10.0931C9.61308 10.0775 9.70757 10.0423 9.79238 9.9896C9.87719 9.93686 9.95061 9.86765 10.0083 9.78605C10.066 9.70444 10.1069 9.61209 10.1284 9.51444C10.15 9.41678 10.1518 9.31579 10.1338 9.21741C10.1158 9.11903 10.0783 9.02526 10.0236 8.94161C9.96891 8.85796 9.89804 8.78613 9.8152 8.73034C9.73236 8.67455 9.63921 8.63593 9.54125 8.61676C9.44328 8.5976 9.34248 8.59826 9.24478 8.61872L8.7563 8.70581C7.92619 8.85795 7.13703 9.00109 6.44876 9.15724C6.58062 8.05619 7.13004 6.31352 9.13689 4.94722C9.26858 5.12303 9.41139 5.2902 9.56444 5.44769C9.63736 5.52277 9.70529 5.58983 9.77122 5.64789C9.76323 5.73497 9.76023 5.81905 9.76023 5.90413C9.76004 6.55887 9.96071 7.19783 10.3351 7.73446C10.7094 8.27109 11.2394 8.67943 11.8531 8.90415C12.4668 9.12887 13.1346 9.15912 13.7661 8.99079C14.3975 8.82246 14.9621 8.46369 15.3832 7.9631C16.149 8.12016 16.8992 8.34561 17.6248 8.63674C17.6401 8.66379 17.6491 8.69389 17.6514 8.72487C17.6536 8.75585 17.649 8.78694 17.6378 8.81591C17.5729 9.0161 17.0155 10.1001 12.3005 11.7027C12.1328 11.7599 11.9908 11.875 11.8998 12.0273C11.8088 12.1797 11.7747 12.3594 11.8036 12.5346C11.8325 12.7098 11.9225 12.869 12.0576 12.9839C12.1927 13.0988 12.3641 13.1619 12.5413 13.1621C12.6227 13.162 12.7037 13.1489 12.781 13.123C14.4342 12.5605 15.7778 11.998 16.7767 11.4514C17.9755 10.7928 18.7047 10.1362 18.9994 9.44952C19.3873 9.77576 19.6546 10.2231 19.7586 10.7197C19.9294 11.5655 19.5298 12.5215 18.5698 13.5464C18.5011 13.6181 18.4472 13.7027 18.4114 13.7954C18.3756 13.8881 18.3585 13.987 18.3612 14.0863C18.3639 14.1857 18.3863 14.2835 18.427 14.3741C18.4678 14.4647 18.5261 14.5463 18.5986 14.6141C18.6712 14.682 18.7564 14.7347 18.8494 14.7692C18.9424 14.8037 19.0414 14.8193 19.1405 14.8151C19.2396 14.811 19.3369 14.7871 19.4267 14.7449C19.5165 14.7027 19.5971 14.6431 19.6637 14.5694C19.9625 14.2538 20.2348 13.914 20.4778 13.5534C21.5027 14.4693 22.0291 15.3742 22.0431 16.245C22.0591 17.1979 21.4727 17.9717 20.9493 18.4701H14.2005C15.302 17.8671 16.3711 17.2062 17.4031 16.4902C17.5656 16.376 17.6762 16.2017 17.7105 16.0057C17.7447 15.8097 17.6999 15.6081 17.5859 15.4452C17.4718 15.2824 17.2979 15.1716 17.1023 15.1372C16.9067 15.1029 16.7055 15.1478 16.543 15.2621C14.2005 16.9137 11.5184 18.1799 10.888 18.4701H2.49699ZM12.9478 7.60475C12.6131 7.60475 12.2859 7.50528 12.0076 7.31892C11.7293 7.13256 11.5124 6.86768 11.3843 6.55779C11.2563 6.2479 11.2228 5.90691 11.2882 5.57797C11.3536 5.24902 11.5149 4.94689 11.7516 4.7098C11.9884 4.4727 12.29 4.31129 12.6183 4.24597C12.9466 4.18066 13.2869 4.21438 13.5961 4.34287C13.9053 4.47136 14.1695 4.68885 14.3553 4.96783C14.5411 5.2468 14.6402 5.57473 14.64 5.91014C14.6398 6.35967 14.4614 6.7907 14.144 7.10847C13.8267 7.42625 13.3964 7.60476 12.9478 7.60475ZM6.6925 30.4266H4.32503C4.24806 30.4269 4.17331 30.4008 4.11329 30.3525C4.05328 30.3042 4.01165 30.2367 3.99539 30.1613L1.68485 19.9696H5.50278L6.68651 30.4125C6.68651 30.4125 6.6925 30.4196 6.6925 30.4266Z" fill="currentColor"/>
</svg>