<svg width="14" height="16" viewBox="0 0 14 16" fill="none" xmlns="http://www.w3.org/2000/svg">
    <path d="M1 3.67188H2.33333H13" stroke="#383838" stroke-width="1.33333" stroke-linecap="round"
          stroke-linejoin="round"/>
    <path d="M4.3335 3.67207V2.33603C4.3335 1.9817 4.47397 1.64187 4.72402 1.39132C4.97407 1.14076 5.31321 1 5.66683 1H8.3335C8.68712 1 9.02626 1.14076 9.27631 1.39132C9.52635 1.64187 9.66683 1.9817 9.66683 2.33603V3.67207M11.6668 3.67207V13.0243C11.6668 13.3786 11.5264 13.7185 11.2763 13.969C11.0263 14.2196 10.6871 14.3603 10.3335 14.3603H3.66683C3.31321 14.3603 2.97407 14.2196 2.72402 13.969C2.47397 13.7185 2.3335 13.3786 2.3335 13.0243V3.67207H11.6668Z"
          stroke="#383838" stroke-width="1.33333" stroke-linecap="round" stroke-linejoin="round"/>
</svg>
