<svg width="40" height="40" viewBox="0 0 40 40" fill="none">
<path opacity="0.6" d="M20.0001 0C8.95447 0 0 8.99191 0 20.0837C0 30.0318 7.21044 38.2705 16.6645 39.8658V24.2737H11.8399V18.6628H16.6645V14.5255C16.6645 9.72502 19.5843 7.10905 23.8494 7.10905C25.8921 7.10905 27.6476 7.2619 28.1572 7.32922V12.347L25.1991 12.3484C22.88 12.3484 22.4329 13.4548 22.4329 15.0789V18.6599H27.9664L27.2447 24.2709H22.4329V40C32.3284 38.7906 40 30.3421 40 20.078C40 8.99191 31.0455 0 20.0001 0Z" fill="currentColor"/>
</svg>
