<svg width="31" height="31" viewBox="0 0 31 31" fill="none">
    <path d="M27.125 12.9167C27.125 21.9584 15.5 29.7084 15.5 29.7084C15.5 29.7084 3.875 21.9584 3.875 12.9167C3.875 9.83361 5.09977 6.87674 7.27988 4.69663C9.45999 2.51652 12.4169 1.29175 15.5 1.29175C18.5831 1.29175 21.54 2.51652 23.7201 4.69663C25.9002 6.87674 27.125 9.83361 27.125 12.9167Z"
          stroke="currentColor" stroke-width="2" stroke-linecap="round" stroke-linejoin="round"/>
    <path d="M15.5 16.7917C17.6401 16.7917 19.375 15.0569 19.375 12.9167C19.375 10.7766 17.6401 9.04175 15.5 9.04175C13.3599 9.04175 11.625 10.7766 11.625 12.9167C11.625 15.0569 13.3599 16.7917 15.5 16.7917Z"
          stroke="currentColor" stroke-width="2" stroke-linecap="round" stroke-linejoin="round"/>
</svg>