<svg width="16" height="16" viewBox="0 0 16 16" fill="none">
    <path fill-rule="evenodd" clip-rule="evenodd"
          d="M2.07091 3.70277C2.18114 3.48468 2.4079 3.33333 2.6666 3.33333H13.3333C13.592 3.33333 13.8188 3.4847 13.929 3.70282L7.99999 7.85312L2.07091 3.70277ZM1.99993 5.28062V12C1.99993 12.3651 2.30145 12.6667 2.6666 12.6667H13.3333C13.6984 12.6667 13.9999 12.3651 13.9999 12V5.2807L8.38229 9.21304C8.15275 9.37372 7.84722 9.37372 7.61768 9.21304L1.99993 5.28062ZM15.3333 4.01203V12C15.3333 13.1015 14.4348 14 13.3333 14H2.6666C1.56507 14 0.666595 13.1015 0.666595 12V4C0.666595 2.89848 1.56507 2 2.6666 2H13.3333C14.4296 2 15.3247 2.88996 15.3332 3.98432C15.3334 3.99356 15.3334 4.0028 15.3333 4.01203Z"
          fill="currentColor"/>
</svg>
