<svg width="30" height="29" viewBox="0 0 30 29" fill="none">
    <path d="M12 26.9995C12 27.5518 11.5523 27.9995 11 27.9995C10.4477 27.9995 10 27.5518 10 26.9995C10 26.4472 10.4477 25.9995 11 25.9995C11.5523 25.9995 12 26.4472 12 26.9995Z"
          stroke="currentColor" stroke-width="2" stroke-linecap="round" stroke-linejoin="round"/>
    <path d="M27 27C27 27.5523 26.5523 28 26 28C25.4477 28 25 27.5523 25 27C25 26.4477 25.4477 26 26 26C26.5523 26 27 26.4477 27 27Z"
          stroke="currentColor" stroke-width="2" stroke-linecap="round" stroke-linejoin="round"/>
    <path d="M1 1H6.09091L9.50182 18.8533C9.6182 19.4672 9.93697 20.0186 10.4023 20.4111C10.8677 20.8035 11.45 21.012 12.0473 21H24.4182C25.0155 21.012 25.5978 20.8035 26.0631 20.4111C26.5285 20.0186 26.8473 19.4672 26.9636 18.8533L29 7.66667H7.36364"
          stroke="currentColor" stroke-width="2" stroke-linecap="round" stroke-linejoin="round"/>
</svg>