<svg width="18" height="32" viewBox="0 0 18 32" fill="none">
    <path d="M16.5329 6.40517H14.2274L15.3681 0.935938C15.3931 0.837503 15.3978 0.735021 15.3821 0.634693C15.3664 0.534366 15.3305 0.438279 15.2766 0.352249C15.2228 0.266219 15.1521 0.192035 15.0687 0.134185C14.9854 0.0763356 14.8913 0.0360239 14.792 0.0156898C14.6927 -0.00464431 14.5903 -0.00457802 14.491 0.0158847C14.3918 0.0363473 14.2977 0.0767809 14.2144 0.134738C14.1312 0.192696 14.0606 0.266972 14.0068 0.353071C13.9531 0.439171 13.9173 0.535304 13.9017 0.635651L12.697 6.40517H0.74976C0.648888 6.40509 0.549039 6.42543 0.456201 6.46495C0.363363 6.50448 0.279447 6.56239 0.209485 6.63521C0.139523 6.70802 0.0849556 6.79424 0.0490551 6.8887C0.0131545 6.98316 -0.0033401 7.08391 0.000560317 7.18491L0.929568 31.2799C0.937054 31.4738 1.01914 31.6572 1.15863 31.7918C1.29811 31.9263 1.48416 32.0015 1.67777 32.0016H15.6049C15.7986 32.0018 15.9848 31.9266 16.1243 31.792C16.2638 31.6574 16.3459 31.4739 16.3531 31.2799L17.2821 7.18491C17.2859 7.08394 17.2693 6.98325 17.2333 6.88886C17.1974 6.79446 17.1428 6.7083 17.0729 6.63551C17.0029 6.56273 16.9191 6.50482 16.8263 6.46524C16.7335 6.42566 16.6337 6.40523 16.5329 6.40517ZM1.65679 11.2458L1.52893 7.9066H12.3873L11.6881 11.2458H1.65679ZM14.8847 30.5002H2.398L1.71473 12.7472H15.5679L14.8847 30.5002ZM15.6259 11.2458H13.2174L13.9167 7.9066H15.7567L15.6259 11.2458Z"
          fill="currentColor"/>
    <path d="M3.9273 24.7587C4.02558 24.7549 4.12216 24.7318 4.21152 24.6906C4.30087 24.6495 4.38125 24.591 4.44805 24.5187C4.51485 24.4464 4.56676 24.3616 4.60082 24.2691C4.63488 24.1767 4.65042 24.0784 4.64654 23.9799L4.35385 16.3726C4.34617 16.1735 4.25986 15.9856 4.11393 15.8503C3.96799 15.715 3.77438 15.6433 3.57568 15.651C3.37698 15.6587 3.18947 15.7451 3.0544 15.8914C2.91933 16.0376 2.84777 16.2316 2.85545 16.4307L3.14814 24.038C3.15199 24.1366 3.17522 24.2335 3.21648 24.3231C3.25774 24.4127 3.31623 24.4933 3.38859 24.5602C3.46096 24.6271 3.54579 24.6791 3.63823 24.7132C3.73067 24.7472 3.8289 24.7627 3.9273 24.7587Z"
          fill="currentColor"/>
    <path d="M3.96951 25.8594C3.87123 25.8632 3.77465 25.8863 3.6853 25.9275C3.59594 25.9686 3.51557 26.0271 3.44877 26.0994C3.38196 26.1717 3.33005 26.2565 3.29599 26.349C3.26193 26.4414 3.2464 26.5397 3.25028 26.6382L3.27725 27.3388C3.28493 27.538 3.37123 27.7258 3.51717 27.8612C3.6631 27.9965 3.85672 28.0682 4.05542 28.0605C4.25412 28.0528 4.44163 27.9664 4.5767 27.8201C4.71177 27.6739 4.78333 27.4799 4.77565 27.2808L4.74868 26.5801C4.74036 26.3811 4.6537 26.1936 4.50766 26.0585C4.36162 25.9234 4.16811 25.8518 3.96951 25.8594Z"
          fill="currentColor"/>
</svg>