<svg width="40" height="40" viewBox="0 0 40 40" fill="none">
<g opacity="0.6">
<path d="M25.9609 10.6421H14.0391C12.1362 10.6421 10.588 12.1903 10.588 14.0931V26.015C10.588 27.9179 12.1362 29.4665 14.0391 29.4665H25.9609C27.8638 29.4665 29.4124 27.9183 29.4124 26.015V14.0931C29.4124 12.1903 27.8642 10.6421 25.9609 10.6421ZM20 26.2512C16.5832 26.2512 13.8033 23.4713 13.8033 20.0541C13.8033 16.6373 16.5832 13.8574 20 13.8574C23.4172 13.8574 26.1971 16.6373 26.1971 20.0541C26.1971 23.4708 23.4167 26.2512 20 26.2512ZM26.3963 15.1386C25.5875 15.1386 24.9297 14.4809 24.9297 13.6725C24.9297 12.8641 25.5875 12.2063 26.3963 12.2063C27.2047 12.2063 27.8625 12.8641 27.8625 13.6725C27.8625 14.4809 27.2047 15.1386 26.3963 15.1386Z" fill="currentColor"/>
<path d="M20 16.4761C18.0276 16.4761 16.4215 18.0813 16.4215 20.0537C16.4215 22.027 18.0276 23.6326 20 23.6326C21.9733 23.6326 23.5781 22.027 23.5781 20.0537C23.5781 18.0817 21.9729 16.4761 20 16.4761Z" fill="currentColor"/>
<path d="M20 0C8.95475 0 0 8.95475 0 20C0 31.0453 8.95475 40 20 40C31.0453 40 40 31.0453 40 20C40 8.95475 31.0453 0 20 0ZM32.0306 26.0148C32.0306 29.3621 29.3081 32.0845 25.9609 32.0845H14.0391C10.6923 32.0845 7.96943 29.3621 7.96943 26.0148V14.093C7.96943 10.7462 10.6923 8.02335 14.0391 8.02335H25.9609C29.3081 8.02335 32.0306 10.7462 32.0306 14.093V26.0148Z" fill="currentColor"/>
</g>
</svg>
