<svg width="31" height="32" viewBox="0 0 31 32" fill="none">
<path d="M11.9109 11.7982C11.6951 11.5799 11.4381 11.4065 11.1548 11.2882C10.8716 11.1699 10.5677 11.109 10.2607 11.1089H10.2537C9.64222 11.1207 9.05974 11.3717 8.6312 11.8081C8.20266 12.2444 7.96221 12.8314 7.96143 13.443C7.96064 14.0545 8.19959 14.6421 8.627 15.0795C9.05442 15.517 9.63626 15.7695 10.2477 15.7829H10.2537C10.7154 15.7831 11.1669 15.6465 11.5511 15.3904C11.9353 15.1342 12.2349 14.77 12.4122 14.3436C12.5895 13.9173 12.6366 13.448 12.5473 12.9949C12.4581 12.5419 12.2367 12.1254 11.9109 11.7982ZM10.873 14.0697C10.7929 14.1511 10.6974 14.2159 10.5922 14.2603C10.4869 14.3047 10.3739 14.3279 10.2597 14.3284H10.2537C10.0252 14.3269 9.80647 14.2355 9.64479 14.074C9.48311 13.9125 9.39145 13.6939 9.38962 13.4654V13.4524C9.39006 13.2394 9.46842 13.0339 9.60994 12.8747C9.75145 12.7156 9.94633 12.6137 10.1578 12.5883H10.2577C10.4298 12.587 10.5984 12.6368 10.7421 12.7314C10.8858 12.826 10.9983 12.9611 11.0651 13.1196C11.132 13.2782 11.1503 13.453 11.1177 13.622C11.0851 13.7909 11.0031 13.9464 10.882 14.0687L10.873 14.0697Z" fill="currentColor"/>
<path d="M12.3055 20.6528H12.2915C11.6716 20.6511 11.0763 20.8957 10.6367 21.3329C10.1972 21.77 9.94924 22.3639 9.94752 22.9839C9.9458 23.6038 10.1904 24.199 10.6276 24.6386C11.0647 25.0782 11.6586 25.3261 12.2785 25.3278H12.2915C12.909 25.3271 13.5011 25.0823 13.9389 24.6469C14.3768 24.2115 14.6248 23.6208 14.629 23.0033V22.9903C14.6277 22.3732 14.383 21.7815 13.9479 21.3438C13.5128 20.9062 12.9226 20.6578 12.3055 20.6528ZM12.3055 23.8494C12.0795 23.8454 11.8639 23.7535 11.7045 23.5933C11.545 23.433 11.4541 23.217 11.4512 22.991C11.4482 22.765 11.5333 22.5466 11.6885 22.3822C11.8436 22.2179 12.0567 22.1203 12.2825 22.1103H12.2945C12.523 22.1105 12.7423 22.2007 12.9049 22.3612C13.0675 22.5218 13.1604 22.7399 13.1636 22.9684V22.9923C13.161 23.203 13.0825 23.4057 12.9425 23.5632C12.8025 23.7206 12.6103 23.8223 12.4014 23.8494H12.3055Z" fill="currentColor"/>
<path d="M19.1087 6.31152C18.8663 6.31152 18.6294 6.38341 18.4278 6.51809C18.2262 6.65277 18.0691 6.8442 17.9764 7.06816C17.8836 7.29213 17.8593 7.53857 17.9066 7.77633C17.9539 8.0141 18.0706 8.23249 18.2421 8.40391C18.4135 8.57532 18.6319 8.69206 18.8696 8.73935C19.1074 8.78665 19.3538 8.76238 19.5778 8.66961C19.8018 8.57684 19.9932 8.41974 20.1279 8.21817C20.2626 8.01661 20.3344 7.77963 20.3344 7.53721C20.3342 7.21222 20.205 6.90062 19.9751 6.67081C19.7453 6.44101 19.4337 6.31179 19.1087 6.31152Z" fill="currentColor"/>
<path d="M8.64464 17.2676C8.40222 17.2676 8.16524 17.3395 7.96368 17.4741C7.76212 17.6088 7.60502 17.8003 7.51225 18.0242C7.41948 18.2482 7.3952 18.4946 7.4425 18.7324C7.48979 18.9702 7.60653 19.1885 7.77794 19.36C7.94936 19.5314 8.16776 19.6481 8.40552 19.6954C8.64328 19.7427 8.88972 19.7184 9.11369 19.6257C9.33765 19.5329 9.52908 19.3758 9.66376 19.1742C9.79844 18.9727 9.87033 18.7357 9.87033 18.4933C9.87006 18.1683 9.74084 17.8567 9.51104 17.6269C9.28123 17.3971 8.96963 17.2678 8.64464 17.2676Z" fill="currentColor"/>
<path d="M18.4371 21.7646C18.1947 21.7646 17.9577 21.8365 17.7562 21.9712C17.5546 22.1059 17.3975 22.2973 17.3047 22.5213C17.212 22.7453 17.1877 22.9917 17.235 23.2295C17.2823 23.4672 17.399 23.6856 17.5704 23.857C17.7418 24.0284 17.9602 24.1452 18.198 24.1925C18.4358 24.2398 18.6822 24.2155 18.9062 24.1227C19.1301 24.03 19.3216 23.8729 19.4562 23.6713C19.5909 23.4697 19.6628 23.2328 19.6628 22.9903C19.6625 22.6653 19.5333 22.3537 19.3035 22.1239C19.0737 21.8941 18.7621 21.7649 18.4371 21.7646Z" fill="currentColor"/>
<path d="M27.4027 14.612C27.3804 14.5179 27.3396 14.4291 27.2827 14.3509C27.2259 14.2726 27.1542 14.2063 27.0716 14.1559C26.9891 14.1055 26.8974 14.0719 26.8018 14.0571C26.7062 14.0423 26.6086 14.0465 26.5147 14.0696L23.9604 14.7079L17.809 16.1903L14.6294 16.9475V4.71955C14.6291 4.52499 14.5516 4.3385 14.414 4.20102C14.2763 4.06355 14.0897 3.98633 13.8952 3.98633C6.23434 3.98633 1.43683e-07 10.2177 1.43683e-07 17.8805C-0.000262287 19.7053 0.358968 21.5123 1.05717 23.1982C1.75538 24.8842 2.77888 26.4161 4.06921 27.7064C5.35955 28.9968 6.89145 30.0203 8.5774 30.7185C10.2634 31.4167 12.0703 31.7759 13.8952 31.7757H13.9581C16.0589 31.7761 18.1323 31.2985 20.0212 30.3789C21.9101 29.4594 23.565 28.122 24.8605 26.4682C26.156 24.8143 27.0581 22.8873 27.4986 20.8332C27.9391 18.779 27.9063 16.6516 27.4027 14.612ZM13.9171 27.6321C11.3213 27.6305 8.83219 26.5986 6.99664 24.763C5.16109 22.9275 4.12918 20.4384 4.12759 17.8425C4.11053 15.3779 5.03573 12.9999 6.71395 11.1948C8.39218 9.3898 10.6966 8.29412 13.156 8.1319V17.8805C13.1533 17.9768 13.1696 18.0727 13.204 18.1626C13.2385 18.2526 13.2903 18.3349 13.3565 18.4049C13.4227 18.4748 13.5021 18.531 13.5901 18.5703C13.678 18.6096 13.7729 18.6311 13.8692 18.6337C13.933 18.6353 13.9968 18.6289 14.059 18.6147L17.4084 17.7896C17.6088 18.196 17.914 18.5415 18.2927 18.7903C18.6713 19.0392 19.1096 19.1824 19.5621 19.2051C20.1809 19.2046 20.7742 18.9589 21.2123 18.522C21.6504 18.085 21.8975 17.4923 21.8996 16.8736C21.8996 16.8116 21.9046 16.7487 21.8996 16.6858L23.5389 16.2862C23.5459 16.3252 23.5548 16.3641 23.5638 16.4011C23.5759 16.4457 23.5853 16.4911 23.5918 16.5369C23.5918 16.5719 23.5968 16.6039 23.5988 16.6368C23.5979 16.7097 23.609 16.7823 23.6318 16.8516C23.6698 17.1833 23.6905 17.5167 23.6937 17.8505C23.69 20.4426 22.6591 22.9275 20.8268 24.7609C18.9945 26.5944 16.5102 27.6268 13.9181 27.6321H13.9171ZM13.1619 5.47774V6.65348C10.296 6.79566 7.59748 8.04632 5.63656 10.1413C3.67563 12.2362 2.60584 15.0114 2.65317 17.8805C2.65317 20.8647 3.83864 23.7267 5.9488 25.8368C8.05895 27.947 10.9209 29.1325 13.9052 29.1325C16.8894 29.1325 19.7513 27.947 21.8615 25.8368C23.9717 23.7267 25.1571 20.8647 25.1571 17.8805C25.1643 17.5854 25.1493 17.2902 25.1122 16.9974V16.7976C25.1049 16.5607 25.0758 16.325 25.0253 16.0934C25.0193 16.0564 25.0123 16.0185 25.0053 15.9805L26.1501 15.7058C26.2824 16.4282 26.3493 17.1611 26.3499 17.8955C26.3456 21.1876 25.0352 24.3435 22.7063 26.6704C20.3774 28.9973 17.2203 30.3049 13.9281 30.3062H13.9161C10.6861 30.3059 7.5832 29.0479 5.26493 26.7988C2.94666 24.5497 1.59529 21.4863 1.49722 18.2578C1.39915 15.0293 2.56209 11.8894 4.73957 9.50377C6.91705 7.11809 9.93792 5.67407 13.1619 5.47774ZM18.8798 17.437L20.4192 17.0674C20.4047 17.2225 20.3438 17.3697 20.2443 17.4896C20.1449 17.6095 20.0116 17.6967 19.8618 17.7396C19.6879 17.8069 19.4964 17.8137 19.3183 17.7588C19.1401 17.7038 18.9856 17.5905 18.8798 17.437Z" fill="currentColor"/>
<path d="M30.3103 10.6486L30.2184 10.6706L30.3093 10.6456C29.5897 7.61447 27.8687 4.91467 25.4246 2.98282C22.9804 1.05098 19.9561 5.39719e-05 16.8407 0L16.8018 0C16.6072 0.000264698 16.4207 0.0777362 16.2832 0.2154C16.1458 0.353063 16.0685 0.539663 16.0685 0.734216V13.8932C16.0685 14.0762 16.1368 14.2526 16.2601 14.3878C16.3833 14.5231 16.5526 14.6075 16.7348 14.6244L16.7558 14.6783H16.9816L24.074 12.9701L27.2106 12.171L29.7679 11.5327C29.957 11.4872 30.1202 11.3686 30.2219 11.2028C30.3236 11.0371 30.3554 10.8378 30.3103 10.6486ZM17.555 4.19552C19.7435 4.32161 21.826 5.1801 23.4676 6.63292C25.2507 8.12332 26.0789 10.268 26.1388 10.9573L24.2208 11.4178C23.9381 11.099 23.573 10.8642 23.1656 10.7391C22.7582 10.614 22.3243 10.6034 21.9113 10.7086C21.4999 10.7984 21.1218 11.0018 20.8201 11.2956C20.5183 11.5894 20.3049 11.9619 20.2041 12.3708L17.536 13.0131L17.555 4.19552ZM17.555 1.53836C20.0876 1.68245 22.5148 2.60122 24.508 4.1703C26.5013 5.73938 27.9643 7.88299 28.6991 10.311L27.5573 10.5887C26.9458 8.37742 25.6089 6.43579 23.7613 5.07558C21.9646 3.69627 19.8039 2.87231 17.545 2.70511L17.555 1.53836Z" fill="currentColor"/>
</svg>